{
  "accessors": [
    {
      "bufferView": 2,
      "componentType": 5126,
      "count": 33576,
      "max": [
        56.886100769042969,
        64.096900939941406,
        358.36639404296875
      ],
      "min": [
        -56.886100769042969,
        -64.095993041992188,
        -0.068199999630451202
      ],
      "type": "VEC3"
    },
    {
      "bufferView": 2,
      "byteOffset": 402912,
      "componentType": 5126,
      "count": 33576,
      "max": [
        0.99998378753662109,
        0.99995154142379761,
        1
      ],
      "min": [
        -0.99996387958526611,
        -0.99996310472488403,
        -1
      ],
      "type": "VEC3"
    },
    {
      "bufferView": 3,
      "componentType": 5126,
      "count": 33576,
      "max": [
        1,
        0.99999809265136719,
        0.99999344348907471,
        1
      ],
      "min": [
        -0.9999961256980896,
        -0.99999606609344482,
        -0.99975234270095825,
        -1
      ],
      "type": "VEC4"
    },
    {
      "bufferView": 1,
      "componentType": 5126,
      "count": 33576,
      "max": [
        3.906080961227417,
        3.8973329067230225
      ],
      "min": [
        -2.9067308902740479,
        -2.8933320045471191
      ],
      "type": "VEC2"
    },
    {
      "bufferView": 0,
      "componentType": 5125,
      "count": 178164,
      "max": [
        33575
      ],
      "min": [
        0
      ],
      "type": "SCALAR"
    }
  ],
  "asset": {
    "extras": {
      "author": "auqolaq (https://sketchfab.com/auqolaq)",
      "license": "CC-BY-4.0 (http://creativecommons.org/licenses/by/4.0/)",
      "source": "https://sketchfab.com/models/0219531e3c174e9dbf8c28f35290db5e",
      "title": "Hebe"
    },
    "generator": "Sketchfab-3.22.5",
    "version": "2.0"
  },
  "bufferViews": [
    {
      "buffer": 0,
      "byteLength": 712656,
      "byteOffset": 0,
      "name": "floatBufferViews",
      "target": 34963
    },
    {
      "buffer": 0,
      "byteLength": 268608,
      "byteOffset": 712656,
      "byteStride": 8,
      "name": "floatBufferViews",
      "target": 34962
    },
    {
      "buffer": 0,
      "byteLength": 805824,
      "byteOffset": 981264,
      "byteStride": 12,
      "name": "floatBufferViews",
      "target": 34962
    },
    {
      "buffer": 0,
      "byteLength": 537216,
      "byteOffset": 1787088,
      "byteStride": 16,
      "name": "floatBufferViews",
      "target": 34962
    }
  ],
  "buffers": [
    {
      "byteLength": 2324304,
      "uri": "scene.bin"
    }
  ],
  "images": [
    {
      "uri": "textures/HebehebemissinSG1_baseColor.png"
    },
    {
      "uri": "textures/HebehebemissinSG1_normal.png"
    },
    {
      "uri": "textures/HebehebemissinSG1_metallicRoughness.png"
    }
  ],
  "materials": [
    {
      "doubleSided": true,
      "name": "HebehebemissinSG1",
      "normalTexture": {
        "index": 1,
        "scale": 1,
        "texCoord": 0
      },
      "occlusionTexture": {
        "index": 2,
        "strength": 1,
        "texCoord": 0
      },
      "pbrMetallicRoughness": {
        "baseColorFactor": [
          1,
          1,
          1,
          1
        ],
        "baseColorTexture": {
          "index": 0,
          "texCoord": 0
        },
        "metallicFactor": 1,
        "metallicRoughnessTexture": {
          "index": 2,
          "texCoord": 0
        },
        "roughnessFactor": 1
      }
    }
  ],
  "meshes": [
    {
      "primitives": [
        {
          "attributes": {
            "NORMAL": 1,
            "POSITION": 0,
            "TANGENT": 2,
            "TEXCOORD_0": 3
          },
          "indices": 4,
          "material": 0,
          "mode": 4
        }
      ]
    }
  ],
  "nodes": [
    {
      "children": [
        1
      ],
      "name": "RootNode (gltf orientation matrix)",
      "rotation": [
        -0.70710678118654746,
        -0,
        -0,
        0.70710678118654757
      ]
    },
    {
      "children": [
        2
      ],
      "name": "RootNode (model correction matrix)"
    },
    {
      "children": [
        3
      ],
      "name": "hebe.obj.cleaner.materialmerger.gles"
    },
    {
      "mesh": 0,
      "name": ""
    }
  ],
  "samplers": [
    {
      "magFilter": 9729,
      "minFilter": 9987,
      "wrapS": 10497,
      "wrapT": 10497
    }
  ],
  "scene": 0,
  "scenes": [
    {
      "name": "OSG_Scene",
      "nodes": [
        0
      ]
    }
  ],
  "textures": [
    {
      "sampler": 0,
      "source": 0
    },
    {
      "sampler": 0,
      "source": 1
    },
    {
      "sampler": 0,
      "source": 2
    }
  ]
}
