{
  "accessors": [
    {
      "bufferView": 2,
      "componentType": 5126,
      "count": 24,
      "max": [
        0.5,
        0.5,
        0.5
      ],
      "min": [
        -0.5,
        -0.5,
        -0.5
      ],
      "type": "VEC3"
    },
    {
      "bufferView": 2,
      "byteOffset": 288,
      "componentType": 5126,
      "count": 24,
      "max": [
        1,
        1,
        1
      ],
      "min": [
        -1,
        -1,
        -1
      ],
      "type": "VEC3"
    },
    {
      "bufferView": 3,
      "componentType": 5126,
      "count": 24,
      "max": [
        1,
        -0,
        1,
        1
      ],
      "min": [
        0,
        -0,
        -1,
        1
      ],
      "type": "VEC4"
    },
    {
      "bufferView": 1,
      "componentType": 5126,
      "count": 24,
      "max": [
        0.875,
        1
      ],
      "min": [
        0.125,
        0
      ],
      "type": "VEC2"
    },
    {
      "bufferView": 0,
      "componentType": 5125,
      "count": 36,
      "max": [
        23
      ],
      "min": [
        0
      ],
      "type": "SCALAR"
    },
    {
      "bufferView": 2,
      "byteOffset": 576,
      "componentType": 5126,
      "count": 520,
      "max": [
        0.40000000596046448,
        0.125,
        0.39999979734420776
      ],
      "min": [
        -0.39999988675117493,
        -0.125,
        -0.3999999463558197
      ],
      "type": "VEC3"
    },
    {
      "bufferView": 2,
      "byteOffset": 6816,
      "componentType": 5126,
      "count": 520,
      "max": [
        1,
        1,
        1
      ],
      "min": [
        -1,
        -1,
        -1
      ],
      "type": "VEC3"
    },
    {
      "bufferView": 3,
      "byteOffset": 384,
      "componentType": 5126,
      "count": 520,
      "max": [
        1,
        7.1643402321797112e-09,
        1,
        1
      ],
      "min": [
        -1,
        -7.1643295740386748e-09,
        -1,
        1
      ],
      "type": "VEC4"
    },
    {
      "bufferView": 1,
      "byteOffset": 192,
      "componentType": 5126,
      "count": 520,
      "max": [
        1,
        1
      ],
      "min": [
        0,
        0
      ],
      "type": "VEC2"
    },
    {
      "bufferView": 0,
      "byteOffset": 144,
      "componentType": 5125,
      "count": 1536,
      "max": [
        519
      ],
      "min": [
        0
      ],
      "type": "SCALAR"
    },
    {
      "bufferView": 2,
      "byteOffset": 13056,
      "componentType": 5126,
      "count": 2145,
      "max": [
        0.59999990463256836,
        0.19999994337558746,
        0.59999984502792358
      ],
      "min": [
        -0.59999978542327881,
        -0.19999980926513672,
        -0.59999972581863403
      ],
      "type": "VEC3"
    },
    {
      "bufferView": 2,
      "byteOffset": 38796,
      "componentType": 5126,
      "count": 2145,
      "max": [
        1,
        0.9999692440032959,
        1
      ],
      "min": [
        -1,
        -0.9999692440032959,
        -1
      ],
      "type": "VEC3"
    },
    {
      "bufferView": 3,
      "byteOffset": 8704,
      "componentType": 5126,
      "count": 2145,
      "max": [
        1,
        0.024546658620238304,
        1,
        1
      ],
      "min": [
        -1,
        -0.024546768516302109,
        -1,
        1
      ],
      "type": "VEC4"
    },
    {
      "bufferView": 1,
      "byteOffset": 4352,
      "componentType": 5126,
      "count": 2145,
      "max": [
        1,
        1
      ],
      "min": [
        0,
        0
      ],
      "type": "VEC2"
    },
    {
      "bufferView": 0,
      "byteOffset": 6288,
      "componentType": 5125,
      "count": 12288,
      "max": [
        2144
      ],
      "min": [
        0
      ],
      "type": "SCALAR"
    },
    {
      "bufferView": 2,
      "byteOffset": 64536,
      "componentType": 5126,
      "count": 16,
      "max": [
        0.70710676908493042,
        0.35355338454246521,
        0.70710676908493042
      ],
      "min": [
        -0.70710676908493042,
        -0.35355338454246521,
        -0.70710676908493042
      ],
      "type": "VEC3"
    },
    {
      "bufferView": 2,
      "byteOffset": 64728,
      "componentType": 5126,
      "count": 16,
      "max": [
        0.57735031843185425,
        0.57735031843185425,
        0.57735031843185425
      ],
      "min": [
        -0.57735031843185425,
        -1,
        -0.57735031843185425
      ],
      "type": "VEC3"
    },
    {
      "bufferView": 3,
      "byteOffset": 43024,
      "componentType": 5126,
      "count": 16,
      "max": [
        1,
        4.145225719140856e-16,
        0.7071068286895752,
        1
      ],
      "min": [
        -0.7071068286895752,
        -2.7180860229236714e-08,
        -0.7071068286895752,
        1
      ],
      "type": "VEC4"
    },
    {
      "bufferView": 1,
      "byteOffset": 21512,
      "componentType": 5126,
      "count": 16,
      "max": [
        0.75,
        1
      ],
      "min": [
        0.25,
        0
      ],
      "type": "VEC2"
    },
    {
      "bufferView": 0,
      "byteOffset": 55440,
      "componentType": 5125,
      "count": 18,
      "max": [
        15
      ],
      "min": [
        0
      ],
      "type": "SCALAR"
    },
    {
      "bufferView": 2,
      "byteOffset": 64920,
      "componentType": 5126,
      "count": 130,
      "max": [
        1,
        0.25,
        0.99999988079071045
      ],
      "min": [
        -0.9999997615814209,
        -0.25,
        -0.99999970197677612
      ],
      "type": "VEC3"
    },
    {
      "bufferView": 2,
      "byteOffset": 66480,
      "componentType": 5126,
      "count": 130,
      "max": [
        0.44721361994743347,
        1,
        0.44721364974975586
      ],
      "min": [
        -0.44721367955207825,
        -1,
        -0.44721367955207825
      ],
      "type": "VEC3"
    },
    {
      "bufferView": 3,
      "byteOffset": 43280,
      "componentType": 5126,
      "count": 130,
      "max": [
        1,
        0.019630955532193184,
        0.99999994039535522,
        1
      ],
      "min": [
        -0.99999994039535522,
        -0.019630959257483482,
        -1,
        1
      ],
      "type": "VEC4"
    },
    {
      "bufferView": 1,
      "byteOffset": 21640,
      "componentType": 5126,
      "count": 130,
      "max": [
        0.75,
        1
      ],
      "min": [
        0.25,
        7.4505805969238281e-08
      ],
      "type": "VEC2"
    },
    {
      "bufferView": 0,
      "byteOffset": 55512,
      "componentType": 5125,
      "count": 378,
      "max": [
        129
      ],
      "min": [
        0
      ],
      "type": "SCALAR"
    }
  ],
  "asset": {
    "extras": {
      "author": "auqolaq (https://sketchfab.com/auqolaq)",
      "license": "CC-BY-4.0 (http://creativecommons.org/licenses/by/4.0/)",
      "source": "https://sketchfab.com/models/3f59caa2ac394b28bab41d8b42687f99",
      "title": "Inheritance"
    },
    "generator": "Sketchfab-3.34.3",
    "version": "2.0"
  },
  "bufferViews": [
    {
      "buffer": 0,
      "byteLength": 57024,
      "byteOffset": 0,
      "name": "floatBufferViews",
      "target": 34963
    },
    {
      "buffer": 0,
      "byteLength": 22680,
      "byteOffset": 57024,
      "byteStride": 8,
      "name": "floatBufferViews",
      "target": 34962
    },
    {
      "buffer": 0,
      "byteLength": 68040,
      "byteOffset": 79704,
      "byteStride": 12,
      "name": "floatBufferViews",
      "target": 34962
    },
    {
      "buffer": 0,
      "byteLength": 45360,
      "byteOffset": 147744,
      "byteStride": 16,
      "name": "floatBufferViews",
      "target": 34962
    }
  ],
  "buffers": [
    {
      "byteLength": 193104,
      "uri": "scene.bin"
    }
  ],
  "materials": [
    {
      "doubleSided": true,
      "emissiveFactor": [
        0,
        0,
        0
      ],
      "name": "lambert1",
      "pbrMetallicRoughness": {
        "baseColorFactor": [
          0,
          0.378,
          0,
          1
        ],
        "metallicFactor": 0,
        "roughnessFactor": 0.59999999999999998
      }
    },
    {
      "doubleSided": true,
      "emissiveFactor": [
        0,
        0,
        0
      ],
      "name": "tilt",
      "pbrMetallicRoughness": {
        "baseColorFactor": [
          0,
          0.55100000000000005,
          0.42460100000000001,
          1
        ],
        "metallicFactor": 0,
        "roughnessFactor": 0.59999999999999998
      }
    },
    {
      "doubleSided": true,
      "emissiveFactor": [
        0,
        0,
        0
      ],
      "name": "blue",
      "pbrMetallicRoughness": {
        "baseColorFactor": [
          0,
          0.21279999999999999,
          1,
          1
        ],
        "metallicFactor": 0,
        "roughnessFactor": 0.59999999999999998
      }
    },
    {
      "doubleSided": true,
      "emissiveFactor": [
        0,
        0,
        0
      ],
      "name": "yellow",
      "pbrMetallicRoughness": {
        "baseColorFactor": [
          0.75,
          0.69130000000000003,
          0,
          1
        ],
        "metallicFactor": 0,
        "roughnessFactor": 0.59999999999999998
      }
    },
    {
      "doubleSided": true,
      "emissiveFactor": [
        0,
        0,
        0
      ],
      "name": "orange",
      "pbrMetallicRoughness": {
        "baseColorFactor": [
          1,
          0.035999999999999997,
          0,
          1
        ],
        "metallicFactor": 0,
        "roughnessFactor": 0.59999999999999998
      }
    }
  ],
  "meshes": [
    {
      "name": "pCube1_lambert1_0",
      "primitives": [
        {
          "attributes": {
            "NORMAL": 1,
            "POSITION": 0,
            "TANGENT": 2,
            "TEXCOORD_0": 3
          },
          "indices": 4,
          "material": 0,
          "mode": 4
        }
      ]
    },
    {
      "name": "pPipe1_tilt_0",
      "primitives": [
        {
          "attributes": {
            "NORMAL": 6,
            "POSITION": 5,
            "TANGENT": 7,
            "TEXCOORD_0": 8
          },
          "indices": 9,
          "material": 1,
          "mode": 4
        }
      ]
    },
    {
      "name": "pTorus1_blue_0",
      "primitives": [
        {
          "attributes": {
            "NORMAL": 11,
            "POSITION": 10,
            "TANGENT": 12,
            "TEXCOORD_0": 13
          },
          "indices": 14,
          "material": 2,
          "mode": 4
        }
      ]
    },
    {
      "name": "pPyramid1_yellow_0",
      "primitives": [
        {
          "attributes": {
            "NORMAL": 16,
            "POSITION": 15,
            "TANGENT": 17,
            "TEXCOORD_0": 18
          },
          "indices": 19,
          "material": 3,
          "mode": 4
        }
      ]
    },
    {
      "name": "pCone1_orange_0",
      "primitives": [
        {
          "attributes": {
            "NORMAL": 21,
            "POSITION": 20,
            "TANGENT": 22,
            "TEXCOORD_0": 23
          },
          "indices": 24,
          "material": 4,
          "mode": 4
        }
      ]
    }
  ],
  "nodes": [
    {
      "children": [
        1
      ],
      "name": "RootNode (gltf orientation matrix)",
      "rotation": [
        -0.70710678118654746,
        -0,
        -0,
        0.70710678118654757
      ]
    },
    {
      "children": [
        2
      ],
      "name": "RootNode (model correction matrix)"
    },
    {
      "children": [
        3
      ],
      "matrix": [
        1,
        0,
        0,
        0,
        0,
        0,
        1,
        0,
        0,
        -1,
        0,
        0,
        0,
        0,
        0,
        1
      ],
      "name": "d654aec5e512423ea1d9b4f84e02a91b.fbx"
    },
    {
      "children": [
        4,
        12
      ],
      "name": "RootNode"
    },
    {
      "children": [
        5,
        6,
        10
      ],
      "matrix": [
        1,
        0,
        0,
        0,
        0,
        1,
        0,
        0,
        0,
        0,
        1,
        0,
        0,
        0.25,
        0,
        1
      ],
      "name": "pCube1"
    },
    {
      "mesh": 0,
      "name": "pCube1_lambert1_0"
    },
    {
      "children": [
        7,
        8
      ],
      "matrix": [
        1,
        0,
        0,
        0,
        0,
        1,
        0,
        0,
        0,
        0,
        1,
        0,
        0,
        -0.25,
        2,
        1
      ],
      "name": "pPipe1"
    },
    {
      "mesh": 1,
      "name": "pPipe1_tilt_0"
    },
    {
      "children": [
        9
      ],
      "matrix": [
        1,
        0,
        0,
        0,
        0,
        1,
        0,
        0,
        0,
        0,
        1,
        0,
        2,
        0,
        -1,
        1
      ],
      "name": "pTorus1"
    },
    {
      "mesh": 2,
      "name": "pTorus1_blue_0"
    },
    {
      "children": [
        11
      ],
      "matrix": [
        1,
        0,
        0,
        0,
        0,
        1,
        0,
        0,
        0,
        0,
        1,
        0,
        -1.5,
        0,
        1,
        1
      ],
      "name": "pPyramid1"
    },
    {
      "mesh": 3,
      "name": "pPyramid1_yellow_0"
    },
    {
      "children": [
        13
      ],
      "matrix": [
        1,
        0,
        0,
        0,
        0,
        1,
        0,
        0,
        0,
        0,
        1,
        0,
        2,
        0.25,
        -1,
        1
      ],
      "name": "pCone1"
    },
    {
      "mesh": 4,
      "name": "pCone1_orange_0"
    }
  ],
  "scene": 0,
  "scenes": [
    {
      "name": "OSG_Scene",
      "nodes": [
        0
      ]
    }
  ]
}

