{
    "accessors" : [
        {
            "bufferView" : 0,
            "componentType" : 5125,
            "count" : 1500000,
            "max" : [
                375177
            ],
            "min" : [
                0
            ],
            "type" : "SCALAR"
        },
        {
            "bufferView" : 1,
            "componentType" : 5126,
            "count" : 375178,
            "max" : [
                1.0373790264129639,
                0.8247190117835999,
                -0.007796999998390675
            ],
            "min" : [
                -1.1448349952697754,
                -1.2617700099945068,
                -1.040248990058899
            ],
            "type" : "VEC3"
        },
        {
            "bufferView" : 2,
            "componentType" : 5126,
            "count" : 375178,
            "max" : [
                0.999969482421875,
                0.999969482421875,
                0.999969482421875
            ],
            "min" : [
                -0.999969482421875,
                -0.999969482421875,
                -0.999969482421875
            ],
            "type" : "VEC3"
        },
        {
            "bufferView" : 3,
            "componentType" : 5126,
            "count" : 375178,
            "max" : [
                1.0,
                0.9999990463256836,
                1.0,
                1.0
            ],
            "min" : [
                -0.9999997019767761,
                -0.9999996423721313,
                -0.9999982714653015,
                -1.0
            ],
            "type" : "VEC4"
        },
        {
            "bufferView" : 4,
            "componentType" : 5126,
            "count" : 375178,
            "max" : [
                0.9977999925613403,
                0.9976999999489635
            ],
            "min" : [
                0.002199999988079071,
                0.0023000240325927734
            ],
            "type" : "VEC2"
        }
    ],
    "asset" : {
        "generator" : "Khronos Blender glTF 2.0 exporter",
        "version" : "2.0"
    },
    "bufferViews" : [
        {
            "buffer" : 0,
            "byteLength" : 6000000,
            "byteOffset" : 0,
            "target" : 34963
        },
        {
            "buffer" : 0,
            "byteLength" : 4502136,
            "byteOffset" : 6000000,
            "target" : 34962
        },
        {
            "buffer" : 0,
            "byteLength" : 4502136,
            "byteOffset" : 10502136,
            "target" : 34962
        },
        {
            "buffer" : 0,
            "byteLength" : 6002848,
            "byteOffset" : 15004272,
            "target" : 34962
        },
        {
            "buffer" : 0,
            "byteLength" : 3001424,
            "byteOffset" : 21007120,
            "target" : 34962
        }
    ],
    "buffers" : [
        {
            "byteLength" : 24008544,
            "uri" : "scene.bin"
        }
    ],
    "materials" : [
        {
            "alphaMode" : "BLEND",
            "name" : "None.001",
            "pbrMetallicRoughness" : {
                "baseColorFactor" : [
                    0.800000011920929,
                    0.800000011920929,
                    0.800000011920929,
                    1.0
                ],
                "metallicFactor" : 0.0
            }
        }
    ],
    "meshes" : [
        {
            "name" : "chalet.001",
            "primitives" : [
                {
                    "attributes" : {
                        "NORMAL" : 2,
                        "POSITION" : 1,
                        "TANGENT" : 3,
                        "TEXCOORD_0" : 4
                    },
                    "indices" : 0,
                    "material" : 0
                }
            ]
        }
    ],
    "nodes" : [
        {
            "mesh" : 0,
            "name" : "chalet.001",
            "rotation" : [
                -3.090862676913275e-08,
                0.7071068286895752,
                -0.7071068286895752,
                -3.090862321641907e-08
            ]
        }
    ],
    "scene" : 0,
    "scenes" : [
        {
            "name" : "Scene",
            "nodes" : [
                0
            ]
        }
    ]
}
